<svg xmlns="http://www.w3.org/2000/svg" viewBox="-1.0 -75.2 143.8 79.2" width="143.8" height="79.2">
  <path d="M3.0 -1.4000000000000001H14.100000000000001V-69.8H3.0V-71.2H60.2V-53.900000000000006H59.1Q57.800000000000004 -57.800000000000004 56.300000000000004 -60.75Q54.800000000000004 -63.7 52.7 -65.75Q50.6 -67.8 47.7 -68.8Q44.800000000000004 -69.8 40.7 -69.8H24.1V-37.4H30.6Q33.9 -37.4 36.2 -38.0Q38.5 -38.6 40.150000000000006 -40.25Q41.800000000000004 -41.900000000000006 42.95 -44.75Q44.1 -47.6 45.2 -52.1H46.300000000000004V-21.0H45.2Q44.5 -23.900000000000002 43.75 -26.6Q43.0 -29.3 41.650000000000006 -31.4Q40.300000000000004 -33.5 38.050000000000004 -34.75Q35.800000000000004 -36.0 32.2 -36.0H24.1V-1.4000000000000001H35.2V0.0H3.0Z M77.7 -1.4000000000000001H88.80000000000001V-69.8H77.7V-71.2H109.9V-69.8H98.80000000000001V-1.4000000000000001H116.60000000000001Q125.4 -1.4000000000000001 130.4 -6.9Q135.4 -12.4 137.7 -21.900000000000002H138.8V0.0H77.7Z" fill="#142B6E"/>
</svg>
